<svg id="Layer_1" data-name="Layer 1" xmlns="http://www.w3.org/2000/svg" viewBox="0 0 209 210"><defs><style>.cls-1,.cls-2{fill:none;}.cls-1{stroke:#231f20;}.cls-1,.cls-2,.cls-3,.cls-6,.cls-7{stroke-miterlimit:10;}.cls-2,.cls-3,.cls-6,.cls-7{stroke:#fc6;}.cls-3,.cls-7{fill:#231f20;}.cls-3,.cls-6{stroke-width:0.5px;}.cls-4{fill:#fff;}.cls-5{fill:#fc6;}</style></defs><circle class="cls-1" cx="104.5" cy="105" r="93.15"/><path d="M101.48,155.53a11.25,11.25,0,0,1-11.21-11.21V118.8a11.24,11.24,0,0,1,11.21-11.21h3v-3.86H76.17L78.86,124,60.18,103.73H50.84A11.25,11.25,0,0,1,39.62,92.52V67A11.25,11.25,0,0,1,50.84,55.79H104.5V11.85a93.15,93.15,0,0,0,0,186.3V155.53Z"/><path class="cls-2" d="M109.69,55.79H50.84A11.25,11.25,0,0,0,39.62,67V92.52a11.25,11.25,0,0,0,11.22,11.21h9.34L78.86,124l-2.69-20.26h33.52A11.24,11.24,0,0,0,120.9,92.52V67A11.24,11.24,0,0,0,109.69,55.79Z"/><path class="cls-2" d="M160.34,107.59H101.48A11.24,11.24,0,0,0,90.27,118.8v25.52a11.25,11.25,0,0,0,11.21,11.21h37.37l-3.47,20.26,16.55-20.26h8.41a11.25,11.25,0,0,0,11.21-11.21V118.8A11.24,11.24,0,0,0,160.34,107.59Z"/><polygon class="cls-3" points="101.89 126.45 104.17 131.06 109.25 131.8 105.57 135.38 106.44 140.44 101.89 138.05 97.35 140.44 98.22 135.38 94.54 131.8 99.62 131.06 101.89 126.45"/><polygon class="cls-3" points="116.6 126.45 118.87 131.06 123.95 131.8 120.28 135.38 121.14 140.44 116.6 138.05 112.06 140.44 112.92 135.38 109.25 131.8 114.33 131.06 116.6 126.45"/><polygon class="cls-3" points="131.31 126.45 133.58 131.06 138.66 131.8 134.99 135.38 135.85 140.44 131.31 138.05 126.76 140.44 127.63 135.38 123.95 131.8 129.03 131.06 131.31 126.45"/><polygon class="cls-3" points="146.01 126.45 148.29 131.06 153.37 131.8 149.69 135.38 150.56 140.44 146.01 138.05 141.47 140.44 142.34 135.38 138.66 131.8 143.74 131.06 146.01 126.45"/><polygon class="cls-4" points="159.93 137.77 155.71 139.98 156.52 135.29 153.11 131.97 157.82 131.29 159.93 127.02 162.03 131.29 166.74 131.97 163.33 135.29 164.14 139.98 159.93 137.77"/><path class="cls-5" d="M159.93,127.58l1.82,3.7.12.24.26,0,4.08.6-3,2.87-.18.19,0,.26.7,4.06-3.65-1.92-.23-.12-.24.12-3.64,1.92.69-4.06,0-.26-.19-.19-2.95-2.87,4.08-.6.26,0,.11-.24,1.83-3.7m0-1.13-2.28,4.61-5.08.74,3.68,3.58-.87,5.06,4.55-2.39,4.54,2.39-.87-5.06,3.68-3.58-5.08-.74-2.27-4.61Z"/><polygon class="cls-6" points="51.25 72.77 53.52 77.37 58.6 78.11 54.92 81.69 55.79 86.76 51.25 84.37 46.7 86.76 47.57 81.69 43.89 78.11 48.97 77.37 51.25 72.77"/><polygon class="cls-6" points="65.95 72.77 68.23 77.37 73.31 78.11 69.63 81.69 70.5 86.76 65.95 84.37 61.41 86.76 62.28 81.69 58.6 78.11 63.68 77.37 65.95 72.77"/><polygon class="cls-6" points="80.66 72.77 82.93 77.37 88.02 78.11 84.34 81.69 85.21 86.76 80.66 84.37 76.12 86.76 76.98 81.69 73.31 78.11 78.39 77.37 80.66 72.77"/><polygon class="cls-6" points="95.37 72.77 97.64 77.37 102.72 78.11 99.05 81.69 99.91 86.76 95.37 84.37 90.82 86.76 91.69 81.69 88.02 78.11 93.1 77.37 95.37 72.77"/><polygon points="109.28 84.08 105.07 86.3 105.87 81.61 102.46 78.29 107.17 77.6 109.28 73.33 111.39 77.6 116.1 78.29 112.69 81.61 113.49 86.3 109.28 84.08"/><path class="cls-5" d="M109.28,73.9l1.82,3.69.12.24.26,0,4.08.59-3,2.88-.19.18,0,.26.7,4.06-3.65-1.92-.23-.12-.23.12-3.65,1.92.7-4.06,0-.26-.19-.18-3-2.88,4.08-.59.26,0,.12-.24,1.82-3.69m0-1.13L107,77.37l-5.08.74,3.67,3.58-.87,5.07,4.55-2.39,4.54,2.39L113,81.69l3.67-3.58-5.08-.74-2.27-4.6Z"/><path class="cls-7" d="M45.8,123.7a6,6,0,0,1,3.25,5.71,6.08,6.08,0,0,1-2.47,5.32,10.88,10.88,0,0,1-6.46,1.75H30.63a.44.44,0,0,1-.43-.43V111.93a.42.42,0,0,1,.13-.31.41.41,0,0,1,.3-.12h9.21c2.9,0,5.1.55,6.58,1.64s2.23,2.87,2.23,5.32a5.27,5.27,0,0,1-2.85,5Q45.59,123.6,45.8,123.7Zm-9.67-7v4.5a.16.16,0,0,0,.18.18h3.53a3.54,3.54,0,0,0,2.25-.63,2.11,2.11,0,0,0,.78-1.76,2.22,2.22,0,0,0-.78-1.82,3.49,3.49,0,0,0-2.25-.64H36.31C36.19,116.57,36.13,116.63,36.13,116.74Zm6.21,14a2.72,2.72,0,0,0,0-3.79,3.36,3.36,0,0,0-2.24-.66H36.31a.16.16,0,0,0-.18.18v4.75a.16.16,0,0,0,.18.18h3.81A3.36,3.36,0,0,0,42.34,130.72Z"/><path class="cls-7" d="M58.73,160.92a8,8,0,0,1-3.36-3.14,9.16,9.16,0,0,1-1.19-4.71v-7.71a9,9,0,0,1,1.19-4.65,8.13,8.13,0,0,1,3.36-3.13,10.94,10.94,0,0,1,5-1.1,11.34,11.34,0,0,1,5,1.05,8,8,0,0,1,3.35,3,8.15,8.15,0,0,1,1.2,4.41.35.35,0,0,1-.13.29.44.44,0,0,1-.3.1l-5.07.32c-.28,0-.43-.13-.43-.39a3.57,3.57,0,0,0-1-2.67,3.54,3.54,0,0,0-2.64-1,3.57,3.57,0,0,0-2.64,1,3.67,3.67,0,0,0-1,2.66v8.1A3.44,3.44,0,0,0,63.74,157a3.44,3.44,0,0,0,3.64-3.64c0-.26.15-.39.43-.39l5.07.25a.44.44,0,0,1,.3.11.3.3,0,0,1,.13.25,8.27,8.27,0,0,1-1.2,4.46,8,8,0,0,1-3.35,3,11.34,11.34,0,0,1-5,1.05A10.81,10.81,0,0,1,58.73,160.92Z"/><path class="cls-7" d="M91.65,162.16A.42.42,0,0,1,92,162H97a.39.39,0,0,1,.3.13.41.41,0,0,1,.12.3v24.12a.45.45,0,0,1-.12.31.42.42,0,0,1-.3.12H92a.41.41,0,0,1-.43-.43v-9.49a.16.16,0,0,0-.18-.18H84.68a.16.16,0,0,0-.18.18v9.49a.41.41,0,0,1-.43.43H79a.41.41,0,0,1-.3-.12.45.45,0,0,1-.12-.31V162.46a.41.41,0,0,1,.12-.3A.38.38,0,0,1,79,162h5.07a.42.42,0,0,1,.31.13.41.41,0,0,1,.12.3v9.21c0,.12.06.17.18.17h6.67c.12,0,.18-.05.18-.17v-9.21A.41.41,0,0,1,91.65,162.16Z"/></svg>